<mxfile host="Electron" agent="Mozilla/5.0 (Macintosh; Intel Mac OS X 10_15_7) AppleWebKit/537.36 (KHTML, like Gecko) draw.io/26.0.9 Chrome/128.0.6613.186 Electron/32.2.5 Safari/537.36" version="26.0.9">
  <diagram name="Page-1" id="aIx81F7P_AUl5_HVWhQa">
    <mxGraphModel dx="2052" dy="2434" grid="1" gridSize="10" guides="1" tooltips="1" connect="1" arrows="1" fold="1" page="1" pageScale="1" pageWidth="850" pageHeight="1100" math="0" shadow="0">
      <root>
        <mxCell id="0" />
        <mxCell id="1" parent="0" />
        <mxCell id="buGYmlrTyqOd2CkGBkVP-1" style="edgeStyle=orthogonalEdgeStyle;rounded=0;orthogonalLoop=1;jettySize=auto;html=1;entryX=0.5;entryY=0;entryDx=0;entryDy=0;entryPerimeter=0;exitX=0.25;exitY=1;exitDx=0;exitDy=0;exitPerimeter=0;" edge="1" parent="1" source="buGYmlrTyqOd2CkGBkVP-3" target="buGYmlrTyqOd2CkGBkVP-11">
          <mxGeometry relative="1" as="geometry">
            <mxPoint x="850" y="170" as="targetPoint" />
            <Array as="points">
              <mxPoint x="830" y="140" />
              <mxPoint x="350" y="140" />
            </Array>
          </mxGeometry>
        </mxCell>
        <mxCell id="buGYmlrTyqOd2CkGBkVP-2" style="edgeStyle=orthogonalEdgeStyle;rounded=0;orthogonalLoop=1;jettySize=auto;html=1;exitX=0.75;exitY=1;exitDx=0;exitDy=0;exitPerimeter=0;" edge="1" parent="1" source="buGYmlrTyqOd2CkGBkVP-3" target="buGYmlrTyqOd2CkGBkVP-7">
          <mxGeometry relative="1" as="geometry" />
        </mxCell>
        <object placeholders="1" c4Name="Клиент" c4Type="Person" c4Description="Инициирует процесс подачи заявки." label="&lt;font style=&quot;font-size: 16px&quot;&gt;&lt;b&gt;%c4Name%&lt;/b&gt;&lt;/font&gt;&lt;div&gt;[%c4Type%]&lt;/div&gt;&lt;br&gt;&lt;div&gt;&lt;font style=&quot;font-size: 11px&quot;&gt;&lt;font color=&quot;#cccccc&quot;&gt;%c4Description%&lt;/font&gt;&lt;/div&gt;" id="buGYmlrTyqOd2CkGBkVP-3">
          <mxCell style="html=1;fontSize=11;dashed=0;whiteSpace=wrap;fillColor=#083F75;strokeColor=#06315C;fontColor=#ffffff;shape=mxgraph.c4.person2;align=center;metaEdit=1;points=[[0.5,0,0],[1,0.5,0],[1,0.75,0],[0.75,1,0],[0.5,1,0],[0.25,1,0],[0,0.75,0],[0,0.5,0]];resizable=0;" vertex="1" parent="1">
            <mxGeometry x="780" y="-130" width="200" height="180" as="geometry" />
          </mxCell>
        </object>
        <object placeholders="1" c4Name="Сотрудник фронт-офиса" c4Type="Person" c4Description="Работает с клиентом в отделении" label="&lt;font style=&quot;font-size: 16px&quot;&gt;&lt;b&gt;%c4Name%&lt;/b&gt;&lt;/font&gt;&lt;div&gt;[%c4Type%]&lt;/div&gt;&lt;br&gt;&lt;div&gt;&lt;font style=&quot;font-size: 11px&quot;&gt;&lt;font color=&quot;#cccccc&quot;&gt;%c4Description%&lt;/font&gt;&lt;/div&gt;" id="buGYmlrTyqOd2CkGBkVP-4">
          <mxCell style="html=1;fontSize=11;dashed=0;whiteSpace=wrap;fillColor=#083F75;strokeColor=#06315C;fontColor=#ffffff;shape=mxgraph.c4.person2;align=center;metaEdit=1;points=[[0.5,0,0],[1,0.5,0],[1,0.75,0],[0.75,1,0],[0.5,1,0],[0.25,1,0],[0,0.75,0],[0,0.5,0]];resizable=0;" vertex="1" parent="1">
            <mxGeometry x="570" y="230" width="200" height="180" as="geometry" />
          </mxCell>
        </object>
        <mxCell id="buGYmlrTyqOd2CkGBkVP-5" style="edgeStyle=orthogonalEdgeStyle;rounded=0;orthogonalLoop=1;jettySize=auto;html=1;entryX=0.75;entryY=0;entryDx=0;entryDy=0;entryPerimeter=0;" edge="1" parent="1" source="buGYmlrTyqOd2CkGBkVP-6" target="buGYmlrTyqOd2CkGBkVP-12">
          <mxGeometry relative="1" as="geometry">
            <mxPoint x="970" y="460" as="targetPoint" />
          </mxGeometry>
        </mxCell>
        <object placeholders="1" c4Name="Сотрудник бэк-офиса" c4Type="Person" c4Description="Обрабатывает заявки и рассчитывает ставки" label="&lt;font style=&quot;font-size: 16px&quot;&gt;&lt;b&gt;%c4Name%&lt;/b&gt;&lt;/font&gt;&lt;div&gt;[%c4Type%]&lt;/div&gt;&lt;br&gt;&lt;div&gt;&lt;font style=&quot;font-size: 11px&quot;&gt;&lt;font color=&quot;#cccccc&quot;&gt;%c4Description%&lt;/font&gt;&lt;/div&gt;" id="buGYmlrTyqOd2CkGBkVP-6">
          <mxCell style="html=1;fontSize=11;dashed=0;whiteSpace=wrap;fillColor=#083F75;strokeColor=#06315C;fontColor=#ffffff;shape=mxgraph.c4.person2;align=center;metaEdit=1;points=[[0.5,0,0],[1,0.5,0],[1,0.75,0],[0.75,1,0],[0.5,1,0],[0.25,1,0],[0,0.75,0],[0,0.5,0]];resizable=0;" vertex="1" parent="1">
            <mxGeometry x="890" y="230" width="200" height="180" as="geometry" />
          </mxCell>
        </object>
        <object placeholders="1" c4Name="Сотрудник кол-центра" c4Type="Person" c4Description="Консультирует клиентов и передаёт заявки в АБС" label="&lt;font style=&quot;font-size: 16px&quot;&gt;&lt;b&gt;%c4Name%&lt;/b&gt;&lt;/font&gt;&lt;div&gt;[%c4Type%]&lt;/div&gt;&lt;br&gt;&lt;div&gt;&lt;font style=&quot;font-size: 11px&quot;&gt;&lt;font color=&quot;#cccccc&quot;&gt;%c4Description%&lt;/font&gt;&lt;/div&gt;" id="buGYmlrTyqOd2CkGBkVP-7">
          <mxCell style="html=1;fontSize=11;dashed=0;whiteSpace=wrap;fillColor=#083F75;strokeColor=#06315C;fontColor=#ffffff;shape=mxgraph.c4.person2;align=center;metaEdit=1;points=[[0.5,0,0],[1,0.5,0],[1,0.75,0],[0.75,1,0],[0.5,1,0],[0.25,1,0],[0,0.75,0],[0,0.5,0]];resizable=0;" vertex="1" parent="1">
            <mxGeometry x="1192" y="230" width="200" height="180" as="geometry" />
          </mxCell>
        </object>
        <object placeholders="1" c4Name="Банк Стардарт" c4Type="SystemScopeBoundary" c4Application="Software System" label="&lt;font style=&quot;font-size: 16px&quot;&gt;&lt;b&gt;&lt;div style=&quot;text-align: left&quot;&gt;%c4Name%&lt;/div&gt;&lt;/b&gt;&lt;/font&gt;&lt;div style=&quot;text-align: left&quot;&gt;[%c4Application%]&lt;/div&gt;" id="buGYmlrTyqOd2CkGBkVP-8">
          <mxCell style="rounded=1;fontSize=11;whiteSpace=wrap;html=1;dashed=1;arcSize=20;fillColor=none;strokeColor=#666666;fontColor=#333333;labelBackgroundColor=none;align=left;verticalAlign=bottom;labelBorderColor=none;spacingTop=0;spacing=10;dashPattern=8 4;metaEdit=1;rotatable=0;perimeter=rectanglePerimeter;noLabel=0;labelPadding=0;allowArrows=0;connectable=0;expand=0;recursiveResize=0;editable=1;pointerEvents=0;absoluteArcSize=1;points=[[0.25,0,0],[0.5,0,0],[0.75,0,0],[1,0.25,0],[1,0.5,0],[1,0.75,0],[0.75,1,0],[0.5,1,0],[0.25,1,0],[0,0.75,0],[0,0.5,0],[0,0.25,0]];" vertex="1" parent="1">
            <mxGeometry x="170" y="170" width="1270" height="860" as="geometry" />
          </mxCell>
        </object>
        <mxCell id="buGYmlrTyqOd2CkGBkVP-9" value="Звонит в кол-центр для уточнения деталей." style="text;align=left;verticalAlign=middle;resizable=0;points=[];autosize=1;strokeColor=none;fillColor=default;spacingLeft=5;" vertex="1" parent="1">
          <mxGeometry x="959" y="123" width="280" height="30" as="geometry" />
        </mxCell>
        <object placeholders="1" c4Name="Интернет - Банк" c4Type="Software System" c4Description="" label="&lt;font style=&quot;font-size: 16px&quot;&gt;&lt;b&gt;%c4Name%&lt;/b&gt;&lt;/font&gt;&lt;div&gt;[%c4Type%]&lt;/div&gt;&lt;br&gt;&lt;div&gt;&lt;font style=&quot;font-size: 11px&quot;&gt;&lt;font color=&quot;#cccccc&quot;&gt;%c4Description%&lt;/font&gt;&lt;/div&gt;" id="buGYmlrTyqOd2CkGBkVP-10">
          <mxCell style="rounded=1;whiteSpace=wrap;html=1;labelBackgroundColor=none;fillColor=#1061B0;fontColor=#ffffff;align=center;arcSize=10;strokeColor=#0D5091;metaEdit=1;resizable=0;points=[[0.25,0,0],[0.5,0,0],[0.75,0,0],[1,0.25,0],[1,0.5,0],[1,0.75,0],[0.75,1,0],[0.5,1,0],[0.25,1,0],[0,0.75,0],[0,0.5,0],[0,0.25,0]];" vertex="1" parent="1">
            <mxGeometry x="425" y="540" width="240" height="120" as="geometry" />
          </mxCell>
        </object>
        <object placeholders="1" c4Name="Сайт" c4Type="Software System" c4Description="" label="&lt;font style=&quot;font-size: 16px&quot;&gt;&lt;b&gt;%c4Name%&lt;/b&gt;&lt;/font&gt;&lt;div&gt;[%c4Type%]&lt;/div&gt;&lt;br&gt;&lt;div&gt;&lt;font style=&quot;font-size: 11px&quot;&gt;&lt;font color=&quot;#cccccc&quot;&gt;%c4Description%&lt;/font&gt;&lt;/div&gt;" id="buGYmlrTyqOd2CkGBkVP-11">
          <mxCell style="rounded=1;whiteSpace=wrap;html=1;labelBackgroundColor=none;fillColor=#1061B0;fontColor=#ffffff;align=center;arcSize=10;strokeColor=#0D5091;metaEdit=1;resizable=0;points=[[0.25,0,0],[0.5,0,0],[0.75,0,0],[1,0.25,0],[1,0.5,0],[1,0.75,0],[0.75,1,0],[0.5,1,0],[0.25,1,0],[0,0.75,0],[0,0.5,0],[0,0.25,0]];" vertex="1" parent="1">
            <mxGeometry x="230" y="280" width="240" height="120" as="geometry" />
          </mxCell>
        </object>
        <object placeholders="1" c4Name="АБС" c4Type="Software System" c4Description="Обрабатывает заявки&#xa;Рассчитывает ставки на основе данных от отдела кредитования" label="&lt;font style=&quot;font-size: 16px&quot;&gt;&lt;b&gt;%c4Name%&lt;/b&gt;&lt;/font&gt;&lt;div&gt;[%c4Type%]&lt;/div&gt;&lt;br&gt;&lt;div&gt;&lt;font style=&quot;font-size: 11px&quot;&gt;&lt;font color=&quot;#cccccc&quot;&gt;%c4Description%&lt;/font&gt;&lt;/div&gt;" id="buGYmlrTyqOd2CkGBkVP-12">
          <mxCell style="rounded=1;whiteSpace=wrap;html=1;labelBackgroundColor=none;fillColor=#1061B0;fontColor=#ffffff;align=center;arcSize=10;strokeColor=#0D5091;metaEdit=1;resizable=0;points=[[0.25,0,0],[0.5,0,0],[0.75,0,0],[1,0.25,0],[1,0.5,0],[1,0.75,0],[0.75,1,0],[0.5,1,0],[0.25,1,0],[0,0.75,0],[0,0.5,0],[0,0.25,0]];" vertex="1" parent="1">
            <mxGeometry x="730" y="690" width="240" height="120" as="geometry" />
          </mxCell>
        </object>
        <mxCell id="buGYmlrTyqOd2CkGBkVP-13" style="edgeStyle=orthogonalEdgeStyle;rounded=0;orthogonalLoop=1;jettySize=auto;html=1;entryX=1;entryY=0.5;entryDx=0;entryDy=0;entryPerimeter=0;exitX=0.5;exitY=1;exitDx=0;exitDy=0;exitPerimeter=0;" edge="1" parent="1" source="buGYmlrTyqOd2CkGBkVP-14" target="buGYmlrTyqOd2CkGBkVP-12">
          <mxGeometry relative="1" as="geometry" />
        </mxCell>
        <object placeholders="1" c4Name="Кол - центр" c4Type="Software System" c4Description="" label="&lt;font style=&quot;font-size: 16px&quot;&gt;&lt;b&gt;%c4Name%&lt;/b&gt;&lt;/font&gt;&lt;div&gt;[%c4Type%]&lt;/div&gt;&lt;br&gt;&lt;div&gt;&lt;font style=&quot;font-size: 11px&quot;&gt;&lt;font color=&quot;#cccccc&quot;&gt;%c4Description%&lt;/font&gt;&lt;/div&gt;" id="buGYmlrTyqOd2CkGBkVP-14">
          <mxCell style="rounded=1;whiteSpace=wrap;html=1;labelBackgroundColor=none;fillColor=#1061B0;fontColor=#ffffff;align=center;arcSize=10;strokeColor=#0D5091;metaEdit=1;resizable=0;points=[[0.25,0,0],[0.5,0,0],[0.75,0,0],[1,0.25,0],[1,0.5,0],[1,0.75,0],[0.75,1,0],[0.5,1,0],[0.25,1,0],[0,0.75,0],[0,0.5,0],[0,0.25,0]];" vertex="1" parent="1">
            <mxGeometry x="1104" y="550" width="240" height="120" as="geometry" />
          </mxCell>
        </object>
        <object placeholders="1" c4Name="СМС - шлюз" c4Type="Software System" c4Description="" label="&lt;font style=&quot;font-size: 16px&quot;&gt;&lt;b&gt;%c4Name%&lt;/b&gt;&lt;/font&gt;&lt;div&gt;[%c4Type%]&lt;/div&gt;&lt;br&gt;&lt;div&gt;&lt;font style=&quot;font-size: 11px&quot;&gt;&lt;font color=&quot;#cccccc&quot;&gt;%c4Description%&lt;/font&gt;&lt;/div&gt;" id="buGYmlrTyqOd2CkGBkVP-15">
          <mxCell style="rounded=1;whiteSpace=wrap;html=1;labelBackgroundColor=none;fillColor=#1061B0;fontColor=#ffffff;align=center;arcSize=10;strokeColor=#0D5091;metaEdit=1;resizable=0;points=[[0.25,0,0],[0.5,0,0],[0.75,0,0],[1,0.25,0],[1,0.5,0],[1,0.75,0],[0.75,1,0],[0.5,1,0],[0.25,1,0],[0,0.75,0],[0,0.5,0],[0,0.25,0]];" vertex="1" parent="1">
            <mxGeometry x="440" y="850" width="240" height="120" as="geometry" />
          </mxCell>
        </object>
        <mxCell id="buGYmlrTyqOd2CkGBkVP-16" style="edgeStyle=orthogonalEdgeStyle;rounded=0;orthogonalLoop=1;jettySize=auto;html=1;entryX=0.5;entryY=1;entryDx=0;entryDy=0;entryPerimeter=0;" edge="1" parent="1" source="buGYmlrTyqOd2CkGBkVP-17" target="buGYmlrTyqOd2CkGBkVP-12">
          <mxGeometry relative="1" as="geometry" />
        </mxCell>
        <object placeholders="1" c4Name="Партнёрский кол - центр" c4Type="Software System" c4Description="" label="&lt;font style=&quot;font-size: 16px&quot;&gt;&lt;b&gt;%c4Name%&lt;/b&gt;&lt;/font&gt;&lt;div&gt;[%c4Type%]&lt;/div&gt;&lt;br&gt;&lt;div&gt;&lt;font style=&quot;font-size: 11px&quot;&gt;&lt;font color=&quot;#cccccc&quot;&gt;%c4Description%&lt;/font&gt;&lt;/div&gt;" id="buGYmlrTyqOd2CkGBkVP-17">
          <mxCell style="rounded=1;whiteSpace=wrap;html=1;labelBackgroundColor=none;fillColor=#8C8496;fontColor=#ffffff;align=center;arcSize=10;strokeColor=#736782;metaEdit=1;resizable=0;points=[[0.25,0,0],[0.5,0,0],[0.75,0,0],[1,0.25,0],[1,0.5,0],[1,0.75,0],[0.75,1,0],[0.5,1,0],[0.25,1,0],[0,0.75,0],[0,0.5,0],[0,0.25,0]];" vertex="1" parent="1">
            <mxGeometry x="820" y="1090" width="240" height="120" as="geometry" />
          </mxCell>
        </object>
        <mxCell id="buGYmlrTyqOd2CkGBkVP-18" style="edgeStyle=orthogonalEdgeStyle;rounded=0;orthogonalLoop=1;jettySize=auto;html=1;entryX=0;entryY=0.5;entryDx=0;entryDy=0;entryPerimeter=0;" edge="1" parent="1" source="buGYmlrTyqOd2CkGBkVP-11" target="buGYmlrTyqOd2CkGBkVP-10">
          <mxGeometry relative="1" as="geometry" />
        </mxCell>
        <mxCell id="buGYmlrTyqOd2CkGBkVP-19" value="Передаёт заявку в интернет - банк" style="text;html=1;align=left;verticalAlign=middle;resizable=0;points=[];autosize=1;strokeColor=none;fillColor=default;spacingLeft=5;" vertex="1" parent="1">
          <mxGeometry x="290" y="448" width="230" height="30" as="geometry" />
        </mxCell>
        <mxCell id="buGYmlrTyqOd2CkGBkVP-20" style="edgeStyle=orthogonalEdgeStyle;rounded=0;orthogonalLoop=1;jettySize=auto;html=1;entryX=0;entryY=0.5;entryDx=0;entryDy=0;entryPerimeter=0;exitX=0.5;exitY=1;exitDx=0;exitDy=0;exitPerimeter=0;" edge="1" parent="1" source="buGYmlrTyqOd2CkGBkVP-10" target="buGYmlrTyqOd2CkGBkVP-12">
          <mxGeometry relative="1" as="geometry" />
        </mxCell>
        <mxCell id="buGYmlrTyqOd2CkGBkVP-21" value="Передаёт заявку в систему банка" style="text;html=1;align=left;verticalAlign=middle;resizable=0;points=[];autosize=1;strokeColor=none;fillColor=default;spacingLeft=5;" vertex="1" parent="1">
          <mxGeometry x="435" y="675" width="220" height="30" as="geometry" />
        </mxCell>
        <mxCell id="buGYmlrTyqOd2CkGBkVP-22" value="Получает данные о ставках" style="text;html=1;align=center;verticalAlign=middle;resizable=0;points=[];autosize=1;strokeColor=none;fillColor=default;spacingLeft=5;" vertex="1" parent="1">
          <mxGeometry x="435" y="714" width="180" height="30" as="geometry" />
        </mxCell>
        <mxCell id="buGYmlrTyqOd2CkGBkVP-23" style="edgeStyle=orthogonalEdgeStyle;rounded=0;orthogonalLoop=1;jettySize=auto;html=1;exitX=0;exitY=0.75;exitDx=0;exitDy=0;exitPerimeter=0;entryX=0.5;entryY=0;entryDx=0;entryDy=0;entryPerimeter=0;" edge="1" parent="1" source="buGYmlrTyqOd2CkGBkVP-12" target="buGYmlrTyqOd2CkGBkVP-15">
          <mxGeometry relative="1" as="geometry" />
        </mxCell>
        <mxCell id="buGYmlrTyqOd2CkGBkVP-24" value="Отправляет уведомление клиенту" style="text;align=left;verticalAlign=middle;resizable=0;points=[];autosize=1;strokeColor=none;fillColor=default;spacingLeft=5;" vertex="1" parent="1">
          <mxGeometry x="440" y="790" width="220" height="30" as="geometry" />
        </mxCell>
        <object placeholders="1" c4Name="Телеком-оператор" c4Type="Software System" c4Description="Оператор по отправке смс" label="&lt;font style=&quot;font-size: 16px&quot;&gt;&lt;b&gt;%c4Name%&lt;/b&gt;&lt;/font&gt;&lt;div&gt;[%c4Type%]&lt;/div&gt;&lt;br&gt;&lt;div&gt;&lt;font style=&quot;font-size: 11px&quot;&gt;&lt;font color=&quot;#cccccc&quot;&gt;%c4Description%&lt;/font&gt;&lt;/div&gt;" id="buGYmlrTyqOd2CkGBkVP-25">
          <mxCell style="rounded=1;whiteSpace=wrap;html=1;labelBackgroundColor=none;fillColor=#8C8496;fontColor=#ffffff;align=center;arcSize=10;strokeColor=#736782;metaEdit=1;resizable=0;points=[[0.25,0,0],[0.5,0,0],[0.75,0,0],[1,0.25,0],[1,0.5,0],[1,0.75,0],[0.75,1,0],[0.5,1,0],[0.25,1,0],[0,0.75,0],[0,0.5,0],[0,0.25,0]];" vertex="1" parent="1">
            <mxGeometry x="440" y="1090" width="240" height="120" as="geometry" />
          </mxCell>
        </object>
        <mxCell id="buGYmlrTyqOd2CkGBkVP-26" style="edgeStyle=orthogonalEdgeStyle;rounded=0;orthogonalLoop=1;jettySize=auto;html=1;entryX=0.5;entryY=0;entryDx=0;entryDy=0;entryPerimeter=0;" edge="1" parent="1" source="buGYmlrTyqOd2CkGBkVP-15" target="buGYmlrTyqOd2CkGBkVP-25">
          <mxGeometry relative="1" as="geometry" />
        </mxCell>
        <mxCell id="buGYmlrTyqOd2CkGBkVP-27" value="Передаёт заявки в АБС" style="text;align=left;verticalAlign=middle;resizable=0;points=[];autosize=1;strokeColor=none;fillColor=default;spacingLeft=5;html=1;spacingRight=5;" vertex="1" parent="1">
          <mxGeometry x="1129" y="684" width="170" height="30" as="geometry" />
        </mxCell>
        <mxCell id="buGYmlrTyqOd2CkGBkVP-28" value="Получает данные о ставках" style="text;align=left;verticalAlign=middle;resizable=0;points=[];autosize=1;strokeColor=none;fillColor=default;spacingLeft=5;spacingRight=5;" vertex="1" parent="1">
          <mxGeometry x="1129" y="714" width="190" height="30" as="geometry" />
        </mxCell>
        <mxCell id="buGYmlrTyqOd2CkGBkVP-29" style="edgeStyle=orthogonalEdgeStyle;rounded=0;orthogonalLoop=1;jettySize=auto;html=1;entryX=1;entryY=0.5;entryDx=0;entryDy=0;entryPerimeter=0;" edge="1" parent="1" source="buGYmlrTyqOd2CkGBkVP-7" target="buGYmlrTyqOd2CkGBkVP-14">
          <mxGeometry relative="1" as="geometry" />
        </mxCell>
        <mxCell id="buGYmlrTyqOd2CkGBkVP-30" value="Передаёт заявки в АБС" style="text;align=left;verticalAlign=middle;resizable=0;points=[];autosize=1;strokeColor=none;fillColor=default;spacingLeft=5;html=1;spacingRight=5;" vertex="1" parent="1">
          <mxGeometry x="800" y="890" width="170" height="30" as="geometry" />
        </mxCell>
        <mxCell id="buGYmlrTyqOd2CkGBkVP-31" value="Получает данные о ставках" style="text;align=left;verticalAlign=middle;resizable=0;points=[];autosize=1;strokeColor=none;fillColor=default;spacingLeft=5;spacingRight=5;" vertex="1" parent="1">
          <mxGeometry x="800" y="850" width="190" height="30" as="geometry" />
        </mxCell>
        <mxCell id="buGYmlrTyqOd2CkGBkVP-32" value="Обрабатывает звонки и заявки" style="text;align=left;verticalAlign=middle;resizable=0;points=[];autosize=1;strokeColor=none;fillColor=default;html=1;spacingLeft=5;" vertex="1" parent="1">
          <mxGeometry x="1200" y="430" width="210" height="30" as="geometry" />
        </mxCell>
        <mxCell id="buGYmlrTyqOd2CkGBkVP-33" style="edgeStyle=orthogonalEdgeStyle;rounded=0;orthogonalLoop=1;jettySize=auto;html=1;entryX=1;entryY=0.75;entryDx=0;entryDy=0;entryPerimeter=0;exitX=0.601;exitY=0.988;exitDx=0;exitDy=0;exitPerimeter=0;" edge="1" parent="1" source="buGYmlrTyqOd2CkGBkVP-3" target="buGYmlrTyqOd2CkGBkVP-4">
          <mxGeometry relative="1" as="geometry">
            <mxPoint x="898" y="100" as="sourcePoint" />
            <Array as="points">
              <mxPoint x="900" y="90" />
              <mxPoint x="900" y="90" />
              <mxPoint x="900" y="240" />
              <mxPoint x="790" y="240" />
              <mxPoint x="790" y="365" />
            </Array>
          </mxGeometry>
        </mxCell>
        <mxCell id="buGYmlrTyqOd2CkGBkVP-34" value="Подаёт заявку в отделениях банка" style="text;align=left;verticalAlign=middle;resizable=0;points=[];autosize=1;strokeColor=none;fillColor=default;spacingLeft=5;" vertex="1" parent="1">
          <mxGeometry x="700" y="200" width="230" height="30" as="geometry" />
        </mxCell>
        <mxCell id="buGYmlrTyqOd2CkGBkVP-35" style="edgeStyle=orthogonalEdgeStyle;rounded=0;orthogonalLoop=1;jettySize=auto;html=1;exitX=0.5;exitY=1;exitDx=0;exitDy=0;exitPerimeter=0;entryX=0.25;entryY=0;entryDx=0;entryDy=0;entryPerimeter=0;" edge="1" parent="1" source="buGYmlrTyqOd2CkGBkVP-4" target="buGYmlrTyqOd2CkGBkVP-12">
          <mxGeometry relative="1" as="geometry">
            <Array as="points">
              <mxPoint x="670" y="500" />
              <mxPoint x="790" y="500" />
            </Array>
          </mxGeometry>
        </mxCell>
        <mxCell id="buGYmlrTyqOd2CkGBkVP-36" value="Участвует в процессе одобрения заявок" style="text;html=1;align=left;verticalAlign=middle;resizable=0;points=[];autosize=1;strokeColor=none;fillColor=default;spacingLeft=5;fontStyle=0" vertex="1" parent="1">
          <mxGeometry x="860" y="440" width="260" height="30" as="geometry" />
        </mxCell>
        <mxCell id="buGYmlrTyqOd2CkGBkVP-37" value="Обрабатывает запрос клиента&amp;nbsp;&lt;div&gt;и передаёт заявку в бэк-офис&lt;/div&gt;" style="text;html=1;align=left;verticalAlign=middle;resizable=0;points=[];autosize=1;strokeColor=none;fillColor=default;spacingLeft=5;" vertex="1" parent="1">
          <mxGeometry x="600" y="430" width="200" height="40" as="geometry" />
        </mxCell>
        <mxCell id="buGYmlrTyqOd2CkGBkVP-38" style="edgeStyle=orthogonalEdgeStyle;rounded=0;orthogonalLoop=1;jettySize=auto;html=1;exitX=0.5;exitY=1;exitDx=0;exitDy=0;exitPerimeter=0;entryX=0.371;entryY=-0.021;entryDx=0;entryDy=0;entryPerimeter=0;" edge="1" parent="1" source="buGYmlrTyqOd2CkGBkVP-3" target="buGYmlrTyqOd2CkGBkVP-10">
          <mxGeometry relative="1" as="geometry">
            <Array as="points">
              <mxPoint x="880" y="100" />
              <mxPoint x="514" y="100" />
            </Array>
          </mxGeometry>
        </mxCell>
        <mxCell id="buGYmlrTyqOd2CkGBkVP-39" value="Подаёт заявку через сайт или интернет-банк." style="text;align=left;verticalAlign=middle;resizable=0;points=[];autosize=1;strokeColor=none;fillColor=default;spacingLeft=5;" vertex="1" parent="1">
          <mxGeometry x="595" y="62" width="290" height="30" as="geometry" />
        </mxCell>
        <mxCell id="buGYmlrTyqOd2CkGBkVP-40" style="edgeStyle=orthogonalEdgeStyle;rounded=0;orthogonalLoop=1;jettySize=auto;html=1;entryX=1;entryY=0.5;entryDx=0;entryDy=0;entryPerimeter=0;fontColor=#6666FF;strokeColor=#999999;" edge="1" parent="1" source="buGYmlrTyqOd2CkGBkVP-14" target="buGYmlrTyqOd2CkGBkVP-11">
          <mxGeometry relative="1" as="geometry">
            <Array as="points">
              <mxPoint x="750" y="590" />
              <mxPoint x="750" y="510" />
              <mxPoint x="550" y="510" />
              <mxPoint x="550" y="340" />
            </Array>
          </mxGeometry>
        </mxCell>
        <mxCell id="buGYmlrTyqOd2CkGBkVP-41" value="Получает заявки на обратные звонки" style="text;html=1;align=left;verticalAlign=middle;resizable=0;points=[];autosize=1;strokeColor=none;fillColor=default;spacingLeft=5;rotation=0;" vertex="1" parent="1">
          <mxGeometry x="857" y="570" width="240" height="30" as="geometry" />
        </mxCell>
        <object placeholders="1" c4Name="sftp-sercer" c4Type="Software System" c4Description="SFTP сервер для файлов ставок " label="&lt;font style=&quot;font-size: 16px&quot;&gt;&lt;b&gt;%c4Name%&lt;/b&gt;&lt;/font&gt;&lt;div&gt;[%c4Type%]&lt;/div&gt;&lt;br&gt;&lt;div&gt;&lt;font style=&quot;font-size: 11px&quot;&gt;&lt;font color=&quot;#cccccc&quot;&gt;%c4Description%&lt;/font&gt;&lt;/div&gt;" id="buGYmlrTyqOd2CkGBkVP-44">
          <mxCell style="rounded=1;whiteSpace=wrap;html=1;labelBackgroundColor=none;fillColor=#1061B0;fontColor=#ffffff;align=center;arcSize=10;strokeColor=#FF3333;metaEdit=1;resizable=0;points=[[0.25,0,0],[0.5,0,0],[0.75,0,0],[1,0.25,0],[1,0.5,0],[1,0.75,0],[0.75,1,0],[0.5,1,0],[0.25,1,0],[0,0.75,0],[0,0.5,0],[0,0.25,0]];strokeWidth=3;" vertex="1" parent="1">
            <mxGeometry x="1104" y="850" width="240" height="120" as="geometry" />
          </mxCell>
        </object>
        <mxCell id="buGYmlrTyqOd2CkGBkVP-45" style="edgeStyle=orthogonalEdgeStyle;rounded=0;orthogonalLoop=1;jettySize=auto;html=1;exitX=1;exitY=0.75;exitDx=0;exitDy=0;exitPerimeter=0;entryX=0;entryY=0.5;entryDx=0;entryDy=0;entryPerimeter=0;strokeColor=light-dark(#e10505, #ededed);" edge="1" parent="1" source="buGYmlrTyqOd2CkGBkVP-12" target="buGYmlrTyqOd2CkGBkVP-44">
          <mxGeometry relative="1" as="geometry" />
        </mxCell>
        <mxCell id="buGYmlrTyqOd2CkGBkVP-46" style="edgeStyle=orthogonalEdgeStyle;rounded=0;orthogonalLoop=1;jettySize=auto;html=1;entryX=1;entryY=0.75;entryDx=0;entryDy=0;entryPerimeter=0;exitX=1;exitY=0.5;exitDx=0;exitDy=0;exitPerimeter=0;strokeColor=light-dark(#e10505, #ededed);startArrow=classic;startFill=1;endArrow=none;" edge="1" parent="1" source="buGYmlrTyqOd2CkGBkVP-44" target="buGYmlrTyqOd2CkGBkVP-14">
          <mxGeometry relative="1" as="geometry">
            <Array as="points">
              <mxPoint x="1400" y="910" />
              <mxPoint x="1400" y="640" />
            </Array>
          </mxGeometry>
        </mxCell>
        <mxCell id="buGYmlrTyqOd2CkGBkVP-47" style="edgeStyle=orthogonalEdgeStyle;rounded=0;orthogonalLoop=1;jettySize=auto;html=1;entryX=0.5;entryY=1;entryDx=0;entryDy=0;entryPerimeter=0;strokeColor=light-dark(#e10505, #ededed);" edge="1" parent="1" source="buGYmlrTyqOd2CkGBkVP-17" target="buGYmlrTyqOd2CkGBkVP-44">
          <mxGeometry relative="1" as="geometry" />
        </mxCell>
        <mxCell id="buGYmlrTyqOd2CkGBkVP-48" value="Берёт актуальный файл со ставками" style="text;html=1;align=left;verticalAlign=middle;resizable=0;points=[];autosize=1;strokeColor=none;fillColor=default;spacingLeft=5;rotation=90;" vertex="1" parent="1">
          <mxGeometry x="1275" y="750" width="240" height="30" as="geometry" />
        </mxCell>
        <mxCell id="buGYmlrTyqOd2CkGBkVP-50" value="Добавляет новый файл на сервер" style="text;html=1;align=left;verticalAlign=middle;resizable=0;points=[];autosize=1;strokeColor=none;fillColor=default;spacingLeft=5;" vertex="1" parent="1">
          <mxGeometry x="1000" y="800" width="220" height="30" as="geometry" />
        </mxCell>
        <mxCell id="buGYmlrTyqOd2CkGBkVP-51" value="Берёт актуальный файл со ставками" style="text;html=1;align=left;verticalAlign=middle;resizable=0;points=[];autosize=1;strokeColor=none;fillColor=default;spacingLeft=5;rotation=0;" vertex="1" parent="1">
          <mxGeometry x="1129" y="1070" width="240" height="30" as="geometry" />
        </mxCell>
      </root>
    </mxGraphModel>
  </diagram>
</mxfile>
